<svg xmlns="http://www.w3.org/2000/svg" width="2000" height="2000" xmlns:xlink="http://www.w3.org/1999/xlink" viewBox="0 0 2000 2000"><defs><clipPath id="clip-path-background-color-123"><rect x="0" y="0" width="2000" height="2000"/></clipPath><clipPath id="clip-path-dot-color-123"><rect x="487" y="1" width="54" height="54" transform="rotate(0,514,28)"/><rect x="595" y="1" width="54" height="54" transform="rotate(0,622,28)"/><rect x="757" y="1" width="54" height="54" transform="rotate(0,784,28)"/><rect x="973" y="1" width="54" height="54" transform="rotate(0,1000,28)"/><rect x="1081" y="1" width="54" height="54" transform="rotate(0,1108,28)"/><rect x="1189" y="1" width="54" height="54" transform="rotate(0,1216,28)"/><rect x="1297" y="1" width="54" height="54" transform="rotate(0,1324,28)"/><rect x="1351" y="1" width="54" height="54" transform="rotate(0,1378,28)"/><rect x="1459" y="1" width="54" height="54" transform="rotate(0,1486,28)"/><rect x="1513" y="1" width="54" height="54" transform="rotate(0,1540,28)"/><rect x="487" y="55" width="54" height="54" transform="rotate(0,514,82)"/><rect x="703" y="55" width="54" height="54" transform="rotate(0,730,82)"/><rect x="757" y="55" width="54" height="54" transform="rotate(0,784,82)"/><rect x="919" y="55" width="54" height="54" transform="rotate(0,946,82)"/><rect x="1027" y="55" width="54" height="54" transform="rotate(0,1054,82)"/><rect x="433" y="109" width="54" height="54" transform="rotate(0,460,136)"/><rect x="487" y="109" width="54" height="54" transform="rotate(0,514,136)"/><rect x="595" y="109" width="54" height="54" transform="rotate(0,622,136)"/><rect x="649" y="109" width="54" height="54" transform="rotate(0,676,136)"/><rect x="703" y="109" width="54" height="54" transform="rotate(0,730,136)"/><rect x="757" y="109" width="54" height="54" transform="rotate(0,784,136)"/><rect x="811" y="109" width="54" height="54" transform="rotate(0,838,136)"/><rect x="919" y="109" width="54" height="54" transform="rotate(0,946,136)"/><rect x="1027" y="109" width="54" height="54" transform="rotate(0,1054,136)"/><rect x="1135" y="109" width="54" height="54" transform="rotate(0,1162,136)"/><rect x="1243" y="109" width="54" height="54" transform="rotate(0,1270,136)"/><rect x="1459" y="109" width="54" height="54" transform="rotate(0,1486,136)"/><rect x="1513" y="109" width="54" height="54" transform="rotate(0,1540,136)"/><rect x="595" y="163" width="54" height="54" transform="rotate(0,622,190)"/><rect x="757" y="163" width="54" height="54" transform="rotate(0,784,190)"/><rect x="811" y="163" width="54" height="54" transform="rotate(0,838,190)"/><rect x="919" y="163" width="54" height="54" transform="rotate(0,946,190)"/><rect x="1027" y="163" width="54" height="54" transform="rotate(0,1054,190)"/><rect x="1189" y="163" width="54" height="54" transform="rotate(0,1216,190)"/><rect x="1243" y="163" width="54" height="54" transform="rotate(0,1270,190)"/><rect x="1297" y="163" width="54" height="54" transform="rotate(0,1324,190)"/><rect x="1351" y="163" width="54" height="54" transform="rotate(0,1378,190)"/><rect x="1513" y="163" width="54" height="54" transform="rotate(0,1540,190)"/><rect x="433" y="217" width="54" height="54" transform="rotate(0,460,244)"/><rect x="487" y="217" width="54" height="54" transform="rotate(0,514,244)"/><rect x="595" y="217" width="54" height="54" transform="rotate(0,622,244)"/><rect x="649" y="217" width="54" height="54" transform="rotate(0,676,244)"/><rect x="703" y="217" width="54" height="54" transform="rotate(0,730,244)"/><rect x="757" y="217" width="54" height="54" transform="rotate(0,784,244)"/><rect x="919" y="217" width="54" height="54" transform="rotate(0,946,244)"/><rect x="1135" y="217" width="54" height="54" transform="rotate(0,1162,244)"/><rect x="1189" y="217" width="54" height="54" transform="rotate(0,1216,244)"/><rect x="1243" y="217" width="54" height="54" transform="rotate(0,1270,244)"/><rect x="1405" y="217" width="54" height="54" transform="rotate(0,1432,244)"/><rect x="1459" y="217" width="54" height="54" transform="rotate(0,1486,244)"/><rect x="433" y="271" width="54" height="54" transform="rotate(0,460,298)"/><rect x="541" y="271" width="54" height="54" transform="rotate(0,568,298)"/><rect x="595" y="271" width="54" height="54" transform="rotate(0,622,298)"/><rect x="757" y="271" width="54" height="54" transform="rotate(0,784,298)"/><rect x="865" y="271" width="54" height="54" transform="rotate(0,892,298)"/><rect x="973" y="271" width="54" height="54" transform="rotate(0,1000,298)"/><rect x="1027" y="271" width="54" height="54" transform="rotate(0,1054,298)"/><rect x="1081" y="271" width="54" height="54" transform="rotate(0,1108,298)"/><rect x="1135" y="271" width="54" height="54" transform="rotate(0,1162,298)"/><rect x="1189" y="271" width="54" height="54" transform="rotate(0,1216,298)"/><rect x="1513" y="271" width="54" height="54" transform="rotate(0,1540,298)"/><rect x="433" y="325" width="54" height="54" transform="rotate(0,460,352)"/><rect x="541" y="325" width="54" height="54" transform="rotate(0,568,352)"/><rect x="649" y="325" width="54" height="54" transform="rotate(0,676,352)"/><rect x="757" y="325" width="54" height="54" transform="rotate(0,784,352)"/><rect x="865" y="325" width="54" height="54" transform="rotate(0,892,352)"/><rect x="973" y="325" width="54" height="54" transform="rotate(0,1000,352)"/><rect x="1081" y="325" width="54" height="54" transform="rotate(0,1108,352)"/><rect x="1189" y="325" width="54" height="54" transform="rotate(0,1216,352)"/><rect x="1297" y="325" width="54" height="54" transform="rotate(0,1324,352)"/><rect x="1405" y="325" width="54" height="54" transform="rotate(0,1432,352)"/><rect x="1513" y="325" width="54" height="54" transform="rotate(0,1540,352)"/><rect x="541" y="379" width="54" height="54" transform="rotate(0,568,406)"/><rect x="649" y="379" width="54" height="54" transform="rotate(0,676,406)"/><rect x="865" y="379" width="54" height="54" transform="rotate(0,892,406)"/><rect x="1135" y="379" width="54" height="54" transform="rotate(0,1162,406)"/><rect x="1297" y="379" width="54" height="54" transform="rotate(0,1324,406)"/><rect x="1405" y="379" width="54" height="54" transform="rotate(0,1432,406)"/><rect x="55" y="433" width="54" height="54" transform="rotate(0,82,460)"/><rect x="217" y="433" width="54" height="54" transform="rotate(0,244,460)"/><rect x="325" y="433" width="54" height="54" transform="rotate(0,352,460)"/><rect x="433" y="433" width="54" height="54" transform="rotate(0,460,460)"/><rect x="487" y="433" width="54" height="54" transform="rotate(0,514,460)"/><rect x="541" y="433" width="54" height="54" transform="rotate(0,568,460)"/><rect x="595" y="433" width="54" height="54" transform="rotate(0,622,460)"/><rect x="757" y="433" width="54" height="54" transform="rotate(0,784,460)"/><rect x="811" y="433" width="54" height="54" transform="rotate(0,838,460)"/><rect x="973" y="433" width="54" height="54" transform="rotate(0,1000,460)"/><rect x="1027" y="433" width="54" height="54" transform="rotate(0,1054,460)"/><rect x="1135" y="433" width="54" height="54" transform="rotate(0,1162,460)"/><rect x="1243" y="433" width="54" height="54" transform="rotate(0,1270,460)"/><rect x="1297" y="433" width="54" height="54" transform="rotate(0,1324,460)"/><rect x="1459" y="433" width="54" height="54" transform="rotate(0,1486,460)"/><rect x="1567" y="433" width="54" height="54" transform="rotate(0,1594,460)"/><rect x="1675" y="433" width="54" height="54" transform="rotate(0,1702,460)"/><rect x="1729" y="433" width="54" height="54" transform="rotate(0,1756,460)"/><rect x="1837" y="433" width="54" height="54" transform="rotate(0,1864,460)"/><rect x="163" y="487" width="54" height="54" transform="rotate(0,190,514)"/><rect x="217" y="487" width="54" height="54" transform="rotate(0,244,514)"/><rect x="595" y="487" width="54" height="54" transform="rotate(0,622,514)"/><rect x="649" y="487" width="54" height="54" transform="rotate(0,676,514)"/><rect x="865" y="487" width="54" height="54" transform="rotate(0,892,514)"/><rect x="973" y="487" width="54" height="54" transform="rotate(0,1000,514)"/><rect x="1243" y="487" width="54" height="54" transform="rotate(0,1270,514)"/><rect x="1459" y="487" width="54" height="54" transform="rotate(0,1486,514)"/><rect x="1513" y="487" width="54" height="54" transform="rotate(0,1540,514)"/><rect x="1729" y="487" width="54" height="54" transform="rotate(0,1756,514)"/><rect x="217" y="541" width="54" height="54" transform="rotate(0,244,568)"/><rect x="271" y="541" width="54" height="54" transform="rotate(0,298,568)"/><rect x="325" y="541" width="54" height="54" transform="rotate(0,352,568)"/><rect x="379" y="541" width="54" height="54" transform="rotate(0,406,568)"/><rect x="487" y="541" width="54" height="54" transform="rotate(0,514,568)"/><rect x="595" y="541" width="54" height="54" transform="rotate(0,622,568)"/><rect x="811" y="541" width="54" height="54" transform="rotate(0,838,568)"/><rect x="865" y="541" width="54" height="54" transform="rotate(0,892,568)"/><rect x="973" y="541" width="54" height="54" transform="rotate(0,1000,568)"/><rect x="1081" y="541" width="54" height="54" transform="rotate(0,1108,568)"/><rect x="1189" y="541" width="54" height="54" transform="rotate(0,1216,568)"/><rect x="1243" y="541" width="54" height="54" transform="rotate(0,1270,568)"/><rect x="1297" y="541" width="54" height="54" transform="rotate(0,1324,568)"/><rect x="1351" y="541" width="54" height="54" transform="rotate(0,1378,568)"/><rect x="1405" y="541" width="54" height="54" transform="rotate(0,1432,568)"/><rect x="1459" y="541" width="54" height="54" transform="rotate(0,1486,568)"/><rect x="1513" y="541" width="54" height="54" transform="rotate(0,1540,568)"/><rect x="1567" y="541" width="54" height="54" transform="rotate(0,1594,568)"/><rect x="1675" y="541" width="54" height="54" transform="rotate(0,1702,568)"/><rect x="1837" y="541" width="54" height="54" transform="rotate(0,1864,568)"/><rect x="109" y="595" width="54" height="54" transform="rotate(0,136,622)"/><rect x="271" y="595" width="54" height="54" transform="rotate(0,298,622)"/><rect x="379" y="595" width="54" height="54" transform="rotate(0,406,622)"/><rect x="433" y="595" width="54" height="54" transform="rotate(0,460,622)"/><rect x="487" y="595" width="54" height="54" transform="rotate(0,514,622)"/><rect x="595" y="595" width="54" height="54" transform="rotate(0,622,622)"/><rect x="649" y="595" width="54" height="54" transform="rotate(0,676,622)"/><rect x="919" y="595" width="54" height="54" transform="rotate(0,946,622)"/><rect x="1135" y="595" width="54" height="54" transform="rotate(0,1162,622)"/><rect x="1189" y="595" width="54" height="54" transform="rotate(0,1216,622)"/><rect x="1243" y="595" width="54" height="54" transform="rotate(0,1270,622)"/><rect x="1405" y="595" width="54" height="54" transform="rotate(0,1432,622)"/><rect x="1459" y="595" width="54" height="54" transform="rotate(0,1486,622)"/><rect x="1567" y="595" width="54" height="54" transform="rotate(0,1594,622)"/><rect x="1675" y="595" width="54" height="54" transform="rotate(0,1702,622)"/><rect x="1837" y="595" width="54" height="54" transform="rotate(0,1864,622)"/><rect x="1" y="649" width="54" height="54" transform="rotate(0,28,676)"/><rect x="325" y="649" width="54" height="54" transform="rotate(0,352,676)"/><rect x="379" y="649" width="54" height="54" transform="rotate(0,406,676)"/><rect x="433" y="649" width="54" height="54" transform="rotate(0,460,676)"/><rect x="541" y="649" width="54" height="54" transform="rotate(0,568,676)"/><rect x="973" y="649" width="54" height="54" transform="rotate(0,1000,676)"/><rect x="1081" y="649" width="54" height="54" transform="rotate(0,1108,676)"/><rect x="1135" y="649" width="54" height="54" transform="rotate(0,1162,676)"/><rect x="1189" y="649" width="54" height="54" transform="rotate(0,1216,676)"/><rect x="1243" y="649" width="54" height="54" transform="rotate(0,1270,676)"/><rect x="1297" y="649" width="54" height="54" transform="rotate(0,1324,676)"/><rect x="1513" y="649" width="54" height="54" transform="rotate(0,1540,676)"/><rect x="1567" y="649" width="54" height="54" transform="rotate(0,1594,676)"/><rect x="1621" y="649" width="54" height="54" transform="rotate(0,1648,676)"/><rect x="1837" y="649" width="54" height="54" transform="rotate(0,1864,676)"/><rect x="1945" y="649" width="54" height="54" transform="rotate(0,1972,676)"/><rect x="55" y="703" width="54" height="54" transform="rotate(0,82,730)"/><rect x="271" y="703" width="54" height="54" transform="rotate(0,298,730)"/><rect x="487" y="703" width="54" height="54" transform="rotate(0,514,730)"/><rect x="541" y="703" width="54" height="54" transform="rotate(0,568,730)"/><rect x="595" y="703" width="54" height="54" transform="rotate(0,622,730)"/><rect x="649" y="703" width="54" height="54" transform="rotate(0,676,730)"/><rect x="703" y="703" width="54" height="54" transform="rotate(0,730,730)"/><rect x="811" y="703" width="54" height="54" transform="rotate(0,838,730)"/><rect x="865" y="703" width="54" height="54" transform="rotate(0,892,730)"/><rect x="1027" y="703" width="54" height="54" transform="rotate(0,1054,730)"/><rect x="1135" y="703" width="54" height="54" transform="rotate(0,1162,730)"/><rect x="1243" y="703" width="54" height="54" transform="rotate(0,1270,730)"/><rect x="1351" y="703" width="54" height="54" transform="rotate(0,1378,730)"/><rect x="1405" y="703" width="54" height="54" transform="rotate(0,1432,730)"/><rect x="1459" y="703" width="54" height="54" transform="rotate(0,1486,730)"/><rect x="1567" y="703" width="54" height="54" transform="rotate(0,1594,730)"/><rect x="1729" y="703" width="54" height="54" transform="rotate(0,1756,730)"/><rect x="1837" y="703" width="54" height="54" transform="rotate(0,1864,730)"/><rect x="1891" y="703" width="54" height="54" transform="rotate(0,1918,730)"/><rect x="1" y="757" width="54" height="54" transform="rotate(0,28,784)"/><rect x="271" y="757" width="54" height="54" transform="rotate(0,298,784)"/><rect x="325" y="757" width="54" height="54" transform="rotate(0,352,784)"/><rect x="379" y="757" width="54" height="54" transform="rotate(0,406,784)"/><rect x="487" y="757" width="54" height="54" transform="rotate(0,514,784)"/><rect x="595" y="757" width="54" height="54" transform="rotate(0,622,784)"/><rect x="703" y="757" width="54" height="54" transform="rotate(0,730,784)"/><rect x="919" y="757" width="54" height="54" transform="rotate(0,946,784)"/><rect x="1243" y="757" width="54" height="54" transform="rotate(0,1270,784)"/><rect x="1297" y="757" width="54" height="54" transform="rotate(0,1324,784)"/><rect x="1405" y="757" width="54" height="54" transform="rotate(0,1432,784)"/><rect x="1459" y="757" width="54" height="54" transform="rotate(0,1486,784)"/><rect x="1675" y="757" width="54" height="54" transform="rotate(0,1702,784)"/><rect x="1729" y="757" width="54" height="54" transform="rotate(0,1756,784)"/><rect x="1783" y="757" width="54" height="54" transform="rotate(0,1810,784)"/><rect x="1837" y="757" width="54" height="54" transform="rotate(0,1864,784)"/><rect x="1" y="811" width="54" height="54" transform="rotate(0,28,838)"/><rect x="55" y="811" width="54" height="54" transform="rotate(0,82,838)"/><rect x="109" y="811" width="54" height="54" transform="rotate(0,136,838)"/><rect x="217" y="811" width="54" height="54" transform="rotate(0,244,838)"/><rect x="271" y="811" width="54" height="54" transform="rotate(0,298,838)"/><rect x="433" y="811" width="54" height="54" transform="rotate(0,460,838)"/><rect x="487" y="811" width="54" height="54" transform="rotate(0,514,838)"/><rect x="595" y="811" width="54" height="54" transform="rotate(0,622,838)"/><rect x="757" y="811" width="54" height="54" transform="rotate(0,784,838)"/><rect x="811" y="811" width="54" height="54" transform="rotate(0,838,838)"/><rect x="865" y="811" width="54" height="54" transform="rotate(0,892,838)"/><rect x="1027" y="811" width="54" height="54" transform="rotate(0,1054,838)"/><rect x="1081" y="811" width="54" height="54" transform="rotate(0,1108,838)"/><rect x="1189" y="811" width="54" height="54" transform="rotate(0,1216,838)"/><rect x="1243" y="811" width="54" height="54" transform="rotate(0,1270,838)"/><rect x="1405" y="811" width="54" height="54" transform="rotate(0,1432,838)"/><rect x="1621" y="811" width="54" height="54" transform="rotate(0,1648,838)"/><rect x="1675" y="811" width="54" height="54" transform="rotate(0,1702,838)"/><rect x="1729" y="811" width="54" height="54" transform="rotate(0,1756,838)"/><rect x="1837" y="811" width="54" height="54" transform="rotate(0,1864,838)"/><rect x="109" y="865" width="54" height="54" transform="rotate(0,136,892)"/><rect x="325" y="865" width="54" height="54" transform="rotate(0,352,892)"/><rect x="379" y="865" width="54" height="54" transform="rotate(0,406,892)"/><rect x="487" y="865" width="54" height="54" transform="rotate(0,514,892)"/><rect x="541" y="865" width="54" height="54" transform="rotate(0,568,892)"/><rect x="595" y="865" width="54" height="54" transform="rotate(0,622,892)"/><rect x="703" y="865" width="54" height="54" transform="rotate(0,730,892)"/><rect x="757" y="865" width="54" height="54" transform="rotate(0,784,892)"/><rect x="865" y="865" width="54" height="54" transform="rotate(0,892,892)"/><rect x="1081" y="865" width="54" height="54" transform="rotate(0,1108,892)"/><rect x="1189" y="865" width="54" height="54" transform="rotate(0,1216,892)"/><rect x="1243" y="865" width="54" height="54" transform="rotate(0,1270,892)"/><rect x="1297" y="865" width="54" height="54" transform="rotate(0,1324,892)"/><rect x="1567" y="865" width="54" height="54" transform="rotate(0,1594,892)"/><rect x="1621" y="865" width="54" height="54" transform="rotate(0,1648,892)"/><rect x="1675" y="865" width="54" height="54" transform="rotate(0,1702,892)"/><rect x="1783" y="865" width="54" height="54" transform="rotate(0,1810,892)"/><rect x="1837" y="865" width="54" height="54" transform="rotate(0,1864,892)"/><rect x="109" y="919" width="54" height="54" transform="rotate(0,136,946)"/><rect x="703" y="919" width="54" height="54" transform="rotate(0,730,946)"/><rect x="757" y="919" width="54" height="54" transform="rotate(0,784,946)"/><rect x="865" y="919" width="54" height="54" transform="rotate(0,892,946)"/><rect x="919" y="919" width="54" height="54" transform="rotate(0,946,946)"/><rect x="973" y="919" width="54" height="54" transform="rotate(0,1000,946)"/><rect x="1027" y="919" width="54" height="54" transform="rotate(0,1054,946)"/><rect x="1405" y="919" width="54" height="54" transform="rotate(0,1432,946)"/><rect x="1459" y="919" width="54" height="54" transform="rotate(0,1486,946)"/><rect x="1513" y="919" width="54" height="54" transform="rotate(0,1540,946)"/><rect x="1729" y="919" width="54" height="54" transform="rotate(0,1756,946)"/><rect x="1783" y="919" width="54" height="54" transform="rotate(0,1810,946)"/><rect x="55" y="973" width="54" height="54" transform="rotate(0,82,1000)"/><rect x="109" y="973" width="54" height="54" transform="rotate(0,136,1000)"/><rect x="271" y="973" width="54" height="54" transform="rotate(0,298,1000)"/><rect x="325" y="973" width="54" height="54" transform="rotate(0,352,1000)"/><rect x="433" y="973" width="54" height="54" transform="rotate(0,460,1000)"/><rect x="649" y="973" width="54" height="54" transform="rotate(0,676,1000)"/><rect x="757" y="973" width="54" height="54" transform="rotate(0,784,1000)"/><rect x="973" y="973" width="54" height="54" transform="rotate(0,1000,1000)"/><rect x="1027" y="973" width="54" height="54" transform="rotate(0,1054,1000)"/><rect x="1135" y="973" width="54" height="54" transform="rotate(0,1162,1000)"/><rect x="1189" y="973" width="54" height="54" transform="rotate(0,1216,1000)"/><rect x="1405" y="973" width="54" height="54" transform="rotate(0,1432,1000)"/><rect x="1459" y="973" width="54" height="54" transform="rotate(0,1486,1000)"/><rect x="1513" y="973" width="54" height="54" transform="rotate(0,1540,1000)"/><rect x="1729" y="973" width="54" height="54" transform="rotate(0,1756,1000)"/><rect x="1783" y="973" width="54" height="54" transform="rotate(0,1810,1000)"/><rect x="1837" y="973" width="54" height="54" transform="rotate(0,1864,1000)"/><rect x="1" y="1027" width="54" height="54" transform="rotate(0,28,1054)"/><rect x="55" y="1027" width="54" height="54" transform="rotate(0,82,1054)"/><rect x="163" y="1027" width="54" height="54" transform="rotate(0,190,1054)"/><rect x="217" y="1027" width="54" height="54" transform="rotate(0,244,1054)"/><rect x="433" y="1027" width="54" height="54" transform="rotate(0,460,1054)"/><rect x="595" y="1027" width="54" height="54" transform="rotate(0,622,1054)"/><rect x="757" y="1027" width="54" height="54" transform="rotate(0,784,1054)"/><rect x="865" y="1027" width="54" height="54" transform="rotate(0,892,1054)"/><rect x="919" y="1027" width="54" height="54" transform="rotate(0,946,1054)"/><rect x="1081" y="1027" width="54" height="54" transform="rotate(0,1108,1054)"/><rect x="1135" y="1027" width="54" height="54" transform="rotate(0,1162,1054)"/><rect x="1189" y="1027" width="54" height="54" transform="rotate(0,1216,1054)"/><rect x="1297" y="1027" width="54" height="54" transform="rotate(0,1324,1054)"/><rect x="1405" y="1027" width="54" height="54" transform="rotate(0,1432,1054)"/><rect x="1459" y="1027" width="54" height="54" transform="rotate(0,1486,1054)"/><rect x="1675" y="1027" width="54" height="54" transform="rotate(0,1702,1054)"/><rect x="1729" y="1027" width="54" height="54" transform="rotate(0,1756,1054)"/><rect x="1837" y="1027" width="54" height="54" transform="rotate(0,1864,1054)"/><rect x="1945" y="1027" width="54" height="54" transform="rotate(0,1972,1054)"/><rect x="55" y="1081" width="54" height="54" transform="rotate(0,82,1108)"/><rect x="109" y="1081" width="54" height="54" transform="rotate(0,136,1108)"/><rect x="163" y="1081" width="54" height="54" transform="rotate(0,190,1108)"/><rect x="217" y="1081" width="54" height="54" transform="rotate(0,244,1108)"/><rect x="325" y="1081" width="54" height="54" transform="rotate(0,352,1108)"/><rect x="487" y="1081" width="54" height="54" transform="rotate(0,514,1108)"/><rect x="541" y="1081" width="54" height="54" transform="rotate(0,568,1108)"/><rect x="649" y="1081" width="54" height="54" transform="rotate(0,676,1108)"/><rect x="757" y="1081" width="54" height="54" transform="rotate(0,784,1108)"/><rect x="919" y="1081" width="54" height="54" transform="rotate(0,946,1108)"/><rect x="973" y="1081" width="54" height="54" transform="rotate(0,1000,1108)"/><rect x="1135" y="1081" width="54" height="54" transform="rotate(0,1162,1108)"/><rect x="1243" y="1081" width="54" height="54" transform="rotate(0,1270,1108)"/><rect x="1297" y="1081" width="54" height="54" transform="rotate(0,1324,1108)"/><rect x="1567" y="1081" width="54" height="54" transform="rotate(0,1594,1108)"/><rect x="1621" y="1081" width="54" height="54" transform="rotate(0,1648,1108)"/><rect x="1837" y="1081" width="54" height="54" transform="rotate(0,1864,1108)"/><rect x="1891" y="1081" width="54" height="54" transform="rotate(0,1918,1108)"/><rect x="1945" y="1081" width="54" height="54" transform="rotate(0,1972,1108)"/><rect x="55" y="1135" width="54" height="54" transform="rotate(0,82,1162)"/><rect x="379" y="1135" width="54" height="54" transform="rotate(0,406,1162)"/><rect x="433" y="1135" width="54" height="54" transform="rotate(0,460,1162)"/><rect x="595" y="1135" width="54" height="54" transform="rotate(0,622,1162)"/><rect x="703" y="1135" width="54" height="54" transform="rotate(0,730,1162)"/><rect x="811" y="1135" width="54" height="54" transform="rotate(0,838,1162)"/><rect x="865" y="1135" width="54" height="54" transform="rotate(0,892,1162)"/><rect x="919" y="1135" width="54" height="54" transform="rotate(0,946,1162)"/><rect x="1081" y="1135" width="54" height="54" transform="rotate(0,1108,1162)"/><rect x="1135" y="1135" width="54" height="54" transform="rotate(0,1162,1162)"/><rect x="1189" y="1135" width="54" height="54" transform="rotate(0,1216,1162)"/><rect x="1243" y="1135" width="54" height="54" transform="rotate(0,1270,1162)"/><rect x="1351" y="1135" width="54" height="54" transform="rotate(0,1378,1162)"/><rect x="1459" y="1135" width="54" height="54" transform="rotate(0,1486,1162)"/><rect x="1567" y="1135" width="54" height="54" transform="rotate(0,1594,1162)"/><rect x="1729" y="1135" width="54" height="54" transform="rotate(0,1756,1162)"/><rect x="1783" y="1135" width="54" height="54" transform="rotate(0,1810,1162)"/><rect x="1837" y="1135" width="54" height="54" transform="rotate(0,1864,1162)"/><rect x="1" y="1189" width="54" height="54" transform="rotate(0,28,1216)"/><rect x="163" y="1189" width="54" height="54" transform="rotate(0,190,1216)"/><rect x="217" y="1189" width="54" height="54" transform="rotate(0,244,1216)"/><rect x="271" y="1189" width="54" height="54" transform="rotate(0,298,1216)"/><rect x="325" y="1189" width="54" height="54" transform="rotate(0,352,1216)"/><rect x="433" y="1189" width="54" height="54" transform="rotate(0,460,1216)"/><rect x="487" y="1189" width="54" height="54" transform="rotate(0,514,1216)"/><rect x="541" y="1189" width="54" height="54" transform="rotate(0,568,1216)"/><rect x="703" y="1189" width="54" height="54" transform="rotate(0,730,1216)"/><rect x="1027" y="1189" width="54" height="54" transform="rotate(0,1054,1216)"/><rect x="1243" y="1189" width="54" height="54" transform="rotate(0,1270,1216)"/><rect x="1297" y="1189" width="54" height="54" transform="rotate(0,1324,1216)"/><rect x="1351" y="1189" width="54" height="54" transform="rotate(0,1378,1216)"/><rect x="1459" y="1189" width="54" height="54" transform="rotate(0,1486,1216)"/><rect x="1513" y="1189" width="54" height="54" transform="rotate(0,1540,1216)"/><rect x="1621" y="1189" width="54" height="54" transform="rotate(0,1648,1216)"/><rect x="1783" y="1189" width="54" height="54" transform="rotate(0,1810,1216)"/><rect x="1837" y="1189" width="54" height="54" transform="rotate(0,1864,1216)"/><rect x="163" y="1243" width="54" height="54" transform="rotate(0,190,1270)"/><rect x="271" y="1243" width="54" height="54" transform="rotate(0,298,1270)"/><rect x="433" y="1243" width="54" height="54" transform="rotate(0,460,1270)"/><rect x="649" y="1243" width="54" height="54" transform="rotate(0,676,1270)"/><rect x="757" y="1243" width="54" height="54" transform="rotate(0,784,1270)"/><rect x="973" y="1243" width="54" height="54" transform="rotate(0,1000,1270)"/><rect x="1081" y="1243" width="54" height="54" transform="rotate(0,1108,1270)"/><rect x="1135" y="1243" width="54" height="54" transform="rotate(0,1162,1270)"/><rect x="1513" y="1243" width="54" height="54" transform="rotate(0,1540,1270)"/><rect x="1567" y="1243" width="54" height="54" transform="rotate(0,1594,1270)"/><rect x="1675" y="1243" width="54" height="54" transform="rotate(0,1702,1270)"/><rect x="1837" y="1243" width="54" height="54" transform="rotate(0,1864,1270)"/><rect x="1945" y="1243" width="54" height="54" transform="rotate(0,1972,1270)"/><rect x="163" y="1297" width="54" height="54" transform="rotate(0,190,1324)"/><rect x="217" y="1297" width="54" height="54" transform="rotate(0,244,1324)"/><rect x="271" y="1297" width="54" height="54" transform="rotate(0,298,1324)"/><rect x="325" y="1297" width="54" height="54" transform="rotate(0,352,1324)"/><rect x="433" y="1297" width="54" height="54" transform="rotate(0,460,1324)"/><rect x="487" y="1297" width="54" height="54" transform="rotate(0,514,1324)"/><rect x="595" y="1297" width="54" height="54" transform="rotate(0,622,1324)"/><rect x="757" y="1297" width="54" height="54" transform="rotate(0,784,1324)"/><rect x="919" y="1297" width="54" height="54" transform="rotate(0,946,1324)"/><rect x="973" y="1297" width="54" height="54" transform="rotate(0,1000,1324)"/><rect x="1027" y="1297" width="54" height="54" transform="rotate(0,1054,1324)"/><rect x="1135" y="1297" width="54" height="54" transform="rotate(0,1162,1324)"/><rect x="1189" y="1297" width="54" height="54" transform="rotate(0,1216,1324)"/><rect x="1297" y="1297" width="54" height="54" transform="rotate(0,1324,1324)"/><rect x="1405" y="1297" width="54" height="54" transform="rotate(0,1432,1324)"/><rect x="1459" y="1297" width="54" height="54" transform="rotate(0,1486,1324)"/><rect x="1513" y="1297" width="54" height="54" transform="rotate(0,1540,1324)"/><rect x="1567" y="1297" width="54" height="54" transform="rotate(0,1594,1324)"/><rect x="1621" y="1297" width="54" height="54" transform="rotate(0,1648,1324)"/><rect x="1837" y="1297" width="54" height="54" transform="rotate(0,1864,1324)"/><rect x="1945" y="1297" width="54" height="54" transform="rotate(0,1972,1324)"/><rect x="1" y="1351" width="54" height="54" transform="rotate(0,28,1378)"/><rect x="109" y="1351" width="54" height="54" transform="rotate(0,136,1378)"/><rect x="163" y="1351" width="54" height="54" transform="rotate(0,190,1378)"/><rect x="217" y="1351" width="54" height="54" transform="rotate(0,244,1378)"/><rect x="595" y="1351" width="54" height="54" transform="rotate(0,622,1378)"/><rect x="757" y="1351" width="54" height="54" transform="rotate(0,784,1378)"/><rect x="865" y="1351" width="54" height="54" transform="rotate(0,892,1378)"/><rect x="919" y="1351" width="54" height="54" transform="rotate(0,946,1378)"/><rect x="1027" y="1351" width="54" height="54" transform="rotate(0,1054,1378)"/><rect x="1243" y="1351" width="54" height="54" transform="rotate(0,1270,1378)"/><rect x="1351" y="1351" width="54" height="54" transform="rotate(0,1378,1378)"/><rect x="1405" y="1351" width="54" height="54" transform="rotate(0,1432,1378)"/><rect x="1459" y="1351" width="54" height="54" transform="rotate(0,1486,1378)"/><rect x="1513" y="1351" width="54" height="54" transform="rotate(0,1540,1378)"/><rect x="1729" y="1351" width="54" height="54" transform="rotate(0,1756,1378)"/><rect x="1783" y="1351" width="54" height="54" transform="rotate(0,1810,1378)"/><rect x="1837" y="1351" width="54" height="54" transform="rotate(0,1864,1378)"/><rect x="271" y="1405" width="54" height="54" transform="rotate(0,298,1432)"/><rect x="325" y="1405" width="54" height="54" transform="rotate(0,352,1432)"/><rect x="379" y="1405" width="54" height="54" transform="rotate(0,406,1432)"/><rect x="433" y="1405" width="54" height="54" transform="rotate(0,460,1432)"/><rect x="487" y="1405" width="54" height="54" transform="rotate(0,514,1432)"/><rect x="541" y="1405" width="54" height="54" transform="rotate(0,568,1432)"/><rect x="595" y="1405" width="54" height="54" transform="rotate(0,622,1432)"/><rect x="649" y="1405" width="54" height="54" transform="rotate(0,676,1432)"/><rect x="865" y="1405" width="54" height="54" transform="rotate(0,892,1432)"/><rect x="919" y="1405" width="54" height="54" transform="rotate(0,946,1432)"/><rect x="1135" y="1405" width="54" height="54" transform="rotate(0,1162,1432)"/><rect x="1243" y="1405" width="54" height="54" transform="rotate(0,1270,1432)"/><rect x="1405" y="1405" width="54" height="54" transform="rotate(0,1432,1432)"/><rect x="1459" y="1405" width="54" height="54" transform="rotate(0,1486,1432)"/><rect x="1567" y="1405" width="54" height="54" transform="rotate(0,1594,1432)"/><rect x="1675" y="1405" width="54" height="54" transform="rotate(0,1702,1432)"/><rect x="1729" y="1405" width="54" height="54" transform="rotate(0,1756,1432)"/><rect x="1783" y="1405" width="54" height="54" transform="rotate(0,1810,1432)"/><rect x="1837" y="1405" width="54" height="54" transform="rotate(0,1864,1432)"/><rect x="163" y="1459" width="54" height="54" transform="rotate(0,190,1486)"/><rect x="379" y="1459" width="54" height="54" transform="rotate(0,406,1486)"/><rect x="433" y="1459" width="54" height="54" transform="rotate(0,460,1486)"/><rect x="487" y="1459" width="54" height="54" transform="rotate(0,514,1486)"/><rect x="811" y="1459" width="54" height="54" transform="rotate(0,838,1486)"/><rect x="865" y="1459" width="54" height="54" transform="rotate(0,892,1486)"/><rect x="1027" y="1459" width="54" height="54" transform="rotate(0,1054,1486)"/><rect x="1135" y="1459" width="54" height="54" transform="rotate(0,1162,1486)"/><rect x="1297" y="1459" width="54" height="54" transform="rotate(0,1324,1486)"/><rect x="1405" y="1459" width="54" height="54" transform="rotate(0,1432,1486)"/><rect x="1459" y="1459" width="54" height="54" transform="rotate(0,1486,1486)"/><rect x="1513" y="1459" width="54" height="54" transform="rotate(0,1540,1486)"/><rect x="1621" y="1459" width="54" height="54" transform="rotate(0,1648,1486)"/><rect x="1837" y="1459" width="54" height="54" transform="rotate(0,1864,1486)"/><rect x="1891" y="1459" width="54" height="54" transform="rotate(0,1918,1486)"/><rect x="1945" y="1459" width="54" height="54" transform="rotate(0,1972,1486)"/><rect x="1" y="1513" width="54" height="54" transform="rotate(0,28,1540)"/><rect x="55" y="1513" width="54" height="54" transform="rotate(0,82,1540)"/><rect x="109" y="1513" width="54" height="54" transform="rotate(0,136,1540)"/><rect x="163" y="1513" width="54" height="54" transform="rotate(0,190,1540)"/><rect x="325" y="1513" width="54" height="54" transform="rotate(0,352,1540)"/><rect x="541" y="1513" width="54" height="54" transform="rotate(0,568,1540)"/><rect x="703" y="1513" width="54" height="54" transform="rotate(0,730,1540)"/><rect x="757" y="1513" width="54" height="54" transform="rotate(0,784,1540)"/><rect x="865" y="1513" width="54" height="54" transform="rotate(0,892,1540)"/><rect x="919" y="1513" width="54" height="54" transform="rotate(0,946,1540)"/><rect x="973" y="1513" width="54" height="54" transform="rotate(0,1000,1540)"/><rect x="1027" y="1513" width="54" height="54" transform="rotate(0,1054,1540)"/><rect x="1081" y="1513" width="54" height="54" transform="rotate(0,1108,1540)"/><rect x="1135" y="1513" width="54" height="54" transform="rotate(0,1162,1540)"/><rect x="1243" y="1513" width="54" height="54" transform="rotate(0,1270,1540)"/><rect x="1297" y="1513" width="54" height="54" transform="rotate(0,1324,1540)"/><rect x="1513" y="1513" width="54" height="54" transform="rotate(0,1540,1540)"/><rect x="1567" y="1513" width="54" height="54" transform="rotate(0,1594,1540)"/><rect x="1621" y="1513" width="54" height="54" transform="rotate(0,1648,1540)"/><rect x="1675" y="1513" width="54" height="54" transform="rotate(0,1702,1540)"/><rect x="1729" y="1513" width="54" height="54" transform="rotate(0,1756,1540)"/><rect x="1837" y="1513" width="54" height="54" transform="rotate(0,1864,1540)"/><rect x="1891" y="1513" width="54" height="54" transform="rotate(0,1918,1540)"/><rect x="1945" y="1513" width="54" height="54" transform="rotate(0,1972,1540)"/><rect x="433" y="1567" width="54" height="54" transform="rotate(0,460,1594)"/><rect x="487" y="1567" width="54" height="54" transform="rotate(0,514,1594)"/><rect x="703" y="1567" width="54" height="54" transform="rotate(0,730,1594)"/><rect x="811" y="1567" width="54" height="54" transform="rotate(0,838,1594)"/><rect x="919" y="1567" width="54" height="54" transform="rotate(0,946,1594)"/><rect x="973" y="1567" width="54" height="54" transform="rotate(0,1000,1594)"/><rect x="1243" y="1567" width="54" height="54" transform="rotate(0,1270,1594)"/><rect x="1351" y="1567" width="54" height="54" transform="rotate(0,1378,1594)"/><rect x="1405" y="1567" width="54" height="54" transform="rotate(0,1432,1594)"/><rect x="1459" y="1567" width="54" height="54" transform="rotate(0,1486,1594)"/><rect x="1513" y="1567" width="54" height="54" transform="rotate(0,1540,1594)"/><rect x="1729" y="1567" width="54" height="54" transform="rotate(0,1756,1594)"/><rect x="1783" y="1567" width="54" height="54" transform="rotate(0,1810,1594)"/><rect x="649" y="1621" width="54" height="54" transform="rotate(0,676,1648)"/><rect x="757" y="1621" width="54" height="54" transform="rotate(0,784,1648)"/><rect x="811" y="1621" width="54" height="54" transform="rotate(0,838,1648)"/><rect x="973" y="1621" width="54" height="54" transform="rotate(0,1000,1648)"/><rect x="1135" y="1621" width="54" height="54" transform="rotate(0,1162,1648)"/><rect x="1189" y="1621" width="54" height="54" transform="rotate(0,1216,1648)"/><rect x="1243" y="1621" width="54" height="54" transform="rotate(0,1270,1648)"/><rect x="1351" y="1621" width="54" height="54" transform="rotate(0,1378,1648)"/><rect x="1513" y="1621" width="54" height="54" transform="rotate(0,1540,1648)"/><rect x="1621" y="1621" width="54" height="54" transform="rotate(0,1648,1648)"/><rect x="1729" y="1621" width="54" height="54" transform="rotate(0,1756,1648)"/><rect x="1783" y="1621" width="54" height="54" transform="rotate(0,1810,1648)"/><rect x="1837" y="1621" width="54" height="54" transform="rotate(0,1864,1648)"/><rect x="487" y="1675" width="54" height="54" transform="rotate(0,514,1702)"/><rect x="541" y="1675" width="54" height="54" transform="rotate(0,568,1702)"/><rect x="595" y="1675" width="54" height="54" transform="rotate(0,622,1702)"/><rect x="649" y="1675" width="54" height="54" transform="rotate(0,676,1702)"/><rect x="811" y="1675" width="54" height="54" transform="rotate(0,838,1702)"/><rect x="919" y="1675" width="54" height="54" transform="rotate(0,946,1702)"/><rect x="973" y="1675" width="54" height="54" transform="rotate(0,1000,1702)"/><rect x="1135" y="1675" width="54" height="54" transform="rotate(0,1162,1702)"/><rect x="1243" y="1675" width="54" height="54" transform="rotate(0,1270,1702)"/><rect x="1297" y="1675" width="54" height="54" transform="rotate(0,1324,1702)"/><rect x="1459" y="1675" width="54" height="54" transform="rotate(0,1486,1702)"/><rect x="1513" y="1675" width="54" height="54" transform="rotate(0,1540,1702)"/><rect x="1729" y="1675" width="54" height="54" transform="rotate(0,1756,1702)"/><rect x="1837" y="1675" width="54" height="54" transform="rotate(0,1864,1702)"/><rect x="1891" y="1675" width="54" height="54" transform="rotate(0,1918,1702)"/><rect x="433" y="1729" width="54" height="54" transform="rotate(0,460,1756)"/><rect x="487" y="1729" width="54" height="54" transform="rotate(0,514,1756)"/><rect x="595" y="1729" width="54" height="54" transform="rotate(0,622,1756)"/><rect x="757" y="1729" width="54" height="54" transform="rotate(0,784,1756)"/><rect x="811" y="1729" width="54" height="54" transform="rotate(0,838,1756)"/><rect x="865" y="1729" width="54" height="54" transform="rotate(0,892,1756)"/><rect x="1081" y="1729" width="54" height="54" transform="rotate(0,1108,1756)"/><rect x="1243" y="1729" width="54" height="54" transform="rotate(0,1270,1756)"/><rect x="1297" y="1729" width="54" height="54" transform="rotate(0,1324,1756)"/><rect x="1405" y="1729" width="54" height="54" transform="rotate(0,1432,1756)"/><rect x="1513" y="1729" width="54" height="54" transform="rotate(0,1540,1756)"/><rect x="1567" y="1729" width="54" height="54" transform="rotate(0,1594,1756)"/><rect x="1621" y="1729" width="54" height="54" transform="rotate(0,1648,1756)"/><rect x="1675" y="1729" width="54" height="54" transform="rotate(0,1702,1756)"/><rect x="1729" y="1729" width="54" height="54" transform="rotate(0,1756,1756)"/><rect x="1783" y="1729" width="54" height="54" transform="rotate(0,1810,1756)"/><rect x="1837" y="1729" width="54" height="54" transform="rotate(0,1864,1756)"/><rect x="1891" y="1729" width="54" height="54" transform="rotate(0,1918,1756)"/><rect x="1945" y="1729" width="54" height="54" transform="rotate(0,1972,1756)"/><rect x="487" y="1783" width="54" height="54" transform="rotate(0,514,1810)"/><rect x="595" y="1783" width="54" height="54" transform="rotate(0,622,1810)"/><rect x="649" y="1783" width="54" height="54" transform="rotate(0,676,1810)"/><rect x="865" y="1783" width="54" height="54" transform="rotate(0,892,1810)"/><rect x="973" y="1783" width="54" height="54" transform="rotate(0,1000,1810)"/><rect x="1027" y="1783" width="54" height="54" transform="rotate(0,1054,1810)"/><rect x="1135" y="1783" width="54" height="54" transform="rotate(0,1162,1810)"/><rect x="1189" y="1783" width="54" height="54" transform="rotate(0,1216,1810)"/><rect x="1297" y="1783" width="54" height="54" transform="rotate(0,1324,1810)"/><rect x="1351" y="1783" width="54" height="54" transform="rotate(0,1378,1810)"/><rect x="1405" y="1783" width="54" height="54" transform="rotate(0,1432,1810)"/><rect x="1621" y="1783" width="54" height="54" transform="rotate(0,1648,1810)"/><rect x="1675" y="1783" width="54" height="54" transform="rotate(0,1702,1810)"/><rect x="1891" y="1783" width="54" height="54" transform="rotate(0,1918,1810)"/><rect x="703" y="1837" width="54" height="54" transform="rotate(0,730,1864)"/><rect x="811" y="1837" width="54" height="54" transform="rotate(0,838,1864)"/><rect x="919" y="1837" width="54" height="54" transform="rotate(0,946,1864)"/><rect x="1027" y="1837" width="54" height="54" transform="rotate(0,1054,1864)"/><rect x="1135" y="1837" width="54" height="54" transform="rotate(0,1162,1864)"/><rect x="1243" y="1837" width="54" height="54" transform="rotate(0,1270,1864)"/><rect x="1297" y="1837" width="54" height="54" transform="rotate(0,1324,1864)"/><rect x="1351" y="1837" width="54" height="54" transform="rotate(0,1378,1864)"/><rect x="1513" y="1837" width="54" height="54" transform="rotate(0,1540,1864)"/><rect x="1621" y="1837" width="54" height="54" transform="rotate(0,1648,1864)"/><rect x="1675" y="1837" width="54" height="54" transform="rotate(0,1702,1864)"/><rect x="1837" y="1837" width="54" height="54" transform="rotate(0,1864,1864)"/><rect x="1891" y="1837" width="54" height="54" transform="rotate(0,1918,1864)"/><rect x="433" y="1891" width="54" height="54" transform="rotate(0,460,1918)"/><rect x="487" y="1891" width="54" height="54" transform="rotate(0,514,1918)"/><rect x="541" y="1891" width="54" height="54" transform="rotate(0,568,1918)"/><rect x="649" y="1891" width="54" height="54" transform="rotate(0,676,1918)"/><rect x="703" y="1891" width="54" height="54" transform="rotate(0,730,1918)"/><rect x="757" y="1891" width="54" height="54" transform="rotate(0,784,1918)"/><rect x="811" y="1891" width="54" height="54" transform="rotate(0,838,1918)"/><rect x="919" y="1891" width="54" height="54" transform="rotate(0,946,1918)"/><rect x="973" y="1891" width="54" height="54" transform="rotate(0,1000,1918)"/><rect x="1027" y="1891" width="54" height="54" transform="rotate(0,1054,1918)"/><rect x="1081" y="1891" width="54" height="54" transform="rotate(0,1108,1918)"/><rect x="1135" y="1891" width="54" height="54" transform="rotate(0,1162,1918)"/><rect x="1297" y="1891" width="54" height="54" transform="rotate(0,1324,1918)"/><rect x="1405" y="1891" width="54" height="54" transform="rotate(0,1432,1918)"/><rect x="1567" y="1891" width="54" height="54" transform="rotate(0,1594,1918)"/><rect x="1621" y="1891" width="54" height="54" transform="rotate(0,1648,1918)"/><rect x="1783" y="1891" width="54" height="54" transform="rotate(0,1810,1918)"/><rect x="1837" y="1891" width="54" height="54" transform="rotate(0,1864,1918)"/><rect x="1891" y="1891" width="54" height="54" transform="rotate(0,1918,1918)"/><rect x="487" y="1945" width="54" height="54" transform="rotate(0,514,1972)"/><rect x="595" y="1945" width="54" height="54" transform="rotate(0,622,1972)"/><rect x="649" y="1945" width="54" height="54" transform="rotate(0,676,1972)"/><rect x="703" y="1945" width="54" height="54" transform="rotate(0,730,1972)"/><rect x="757" y="1945" width="54" height="54" transform="rotate(0,784,1972)"/><rect x="865" y="1945" width="54" height="54" transform="rotate(0,892,1972)"/><rect x="973" y="1945" width="54" height="54" transform="rotate(0,1000,1972)"/><rect x="1081" y="1945" width="54" height="54" transform="rotate(0,1108,1972)"/><rect x="1135" y="1945" width="54" height="54" transform="rotate(0,1162,1972)"/><rect x="1189" y="1945" width="54" height="54" transform="rotate(0,1216,1972)"/><rect x="1243" y="1945" width="54" height="54" transform="rotate(0,1270,1972)"/><rect x="1297" y="1945" width="54" height="54" transform="rotate(0,1324,1972)"/><rect x="1459" y="1945" width="54" height="54" transform="rotate(0,1486,1972)"/><rect x="1567" y="1945" width="54" height="54" transform="rotate(0,1594,1972)"/><rect x="1621" y="1945" width="54" height="54" transform="rotate(0,1648,1972)"/><rect x="1837" y="1945" width="54" height="54" transform="rotate(0,1864,1972)"/><rect x="1891" y="1945" width="54" height="54" transform="rotate(0,1918,1972)"/><rect x="1945" y="1945" width="54" height="54" transform="rotate(0,1972,1972)"/></clipPath><clipPath id="clip-path-corners-square-color-0-0-123"><path clip-rule="evenodd" d="M 1 1v 378h 378v -378zM 55 55h 270v 270h -270z" transform="rotate(0,190,190)"/></clipPath><clipPath id="clip-path-corners-dot-color-0-0-123"><rect x="109" y="109" width="162" height="162" transform="rotate(0,190,190)"/></clipPath><clipPath id="clip-path-corners-square-color-1-0-123"><path clip-rule="evenodd" d="M 1621 1v 378h 378v -378zM 1675 55h 270v 270h -270z" transform="rotate(90,1810,190)"/></clipPath><clipPath id="clip-path-corners-dot-color-1-0-123"><rect x="1729" y="109" width="162" height="162" transform="rotate(90,1810,190)"/></clipPath><clipPath id="clip-path-corners-square-color-0-1-123"><path clip-rule="evenodd" d="M 1 1621v 378h 378v -378zM 55 1675h 270v 270h -270z" transform="rotate(-90,190,1810)"/></clipPath><clipPath id="clip-path-corners-dot-color-0-1-123"><rect x="109" y="1729" width="162" height="162" transform="rotate(-90,190,1810)"/></clipPath></defs><rect x="0" y="0" height="2000" width="2000" clip-path="url('#clip-path-background-color-123')" fill="#FFFFFF"/><rect x="0" y="0" height="2000" width="2000" clip-path="url('#clip-path-dot-color-123')" fill="#000000"/><rect x="1" y="1" height="378" width="378" clip-path="url('#clip-path-corners-square-color-0-0-123')" fill="#000000"/><rect x="109" y="109" height="162" width="162" clip-path="url('#clip-path-corners-dot-color-0-0-123')" fill="#000000"/><rect x="1621" y="1" height="378" width="378" clip-path="url('#clip-path-corners-square-color-1-0-123')" fill="#000000"/><rect x="1729" y="109" height="162" width="162" clip-path="url('#clip-path-corners-dot-color-1-0-123')" fill="#000000"/><rect x="1" y="1621" height="378" width="378" clip-path="url('#clip-path-corners-square-color-0-1-123')" fill="#000000"/><rect x="109" y="1729" height="162" width="162" clip-path="url('#clip-path-corners-dot-color-0-1-123')" fill="#000000"/></svg>