<?xml version="1.0" standalone="no"?>
<svg xmlns="http://www.w3.org/2000/svg" version="1.1" width="160" height="160" viewBox="0 0 160 160">
	<!-- Created with https://api.qrserver.com (QR Code API, see goQR.me/api for information) -->
	<title>QR Code</title>
	<desc>https://elia04ita.github.io/fallout76-score-calculator/</desc>
	<rect style="fill:rgb(255, 255, 255);fill-opacity:1" x="0" y="0" width="160" height="160" />
	<g transform="translate(14,14)">
	<g id="elements">
		<path style="fill:rgb(0, 0, 0)" d="M 0,0 l 4,0 0,4 -4,0 z M 4,0 l 4,0 0,4 -4,0 z M 8,0 l 4,0 0,4 -4,0 z M 12,0 l 4,0 0,4 -4,0 z M 16,0 l 4,0 0,4 -4,0 z M 20,0 l 4,0 0,4 -4,0 z M 24,0 l 4,0 0,4 -4,0 z M 40,0 l 4,0 0,4 -4,0 z M 48,0 l 4,0 0,4 -4,0 z M 52,0 l 4,0 0,4 -4,0 z M 56,0 l 4,0 0,4 -4,0 z M 60,0 l 4,0 0,4 -4,0 z M 68,0 l 4,0 0,4 -4,0 z M 72,0 l 4,0 0,4 -4,0 z M 76,0 l 4,0 0,4 -4,0 z M 92,0 l 4,0 0,4 -4,0 z M 96,0 l 4,0 0,4 -4,0 z M 104,0 l 4,0 0,4 -4,0 z M 108,0 l 4,0 0,4 -4,0 z M 112,0 l 4,0 0,4 -4,0 z M 116,0 l 4,0 0,4 -4,0 z M 120,0 l 4,0 0,4 -4,0 z M 124,0 l 4,0 0,4 -4,0 z M 128,0 l 4,0 0,4 -4,0 z M 0,4 l 4,0 0,4 -4,0 z M 24,4 l 4,0 0,4 -4,0 z M 32,4 l 4,0 0,4 -4,0 z M 40,4 l 4,0 0,4 -4,0 z M 52,4 l 4,0 0,4 -4,0 z M 56,4 l 4,0 0,4 -4,0 z M 60,4 l 4,0 0,4 -4,0 z M 64,4 l 4,0 0,4 -4,0 z M 80,4 l 4,0 0,4 -4,0 z M 88,4 l 4,0 0,4 -4,0 z M 104,4 l 4,0 0,4 -4,0 z M 128,4 l 4,0 0,4 -4,0 z M 0,8 l 4,0 0,4 -4,0 z M 8,8 l 4,0 0,4 -4,0 z M 12,8 l 4,0 0,4 -4,0 z M 16,8 l 4,0 0,4 -4,0 z M 24,8 l 4,0 0,4 -4,0 z M 48,8 l 4,0 0,4 -4,0 z M 52,8 l 4,0 0,4 -4,0 z M 60,8 l 4,0 0,4 -4,0 z M 80,8 l 4,0 0,4 -4,0 z M 84,8 l 4,0 0,4 -4,0 z M 88,8 l 4,0 0,4 -4,0 z M 92,8 l 4,0 0,4 -4,0 z M 104,8 l 4,0 0,4 -4,0 z M 112,8 l 4,0 0,4 -4,0 z M 116,8 l 4,0 0,4 -4,0 z M 120,8 l 4,0 0,4 -4,0 z M 128,8 l 4,0 0,4 -4,0 z M 0,12 l 4,0 0,4 -4,0 z M 8,12 l 4,0 0,4 -4,0 z M 12,12 l 4,0 0,4 -4,0 z M 16,12 l 4,0 0,4 -4,0 z M 24,12 l 4,0 0,4 -4,0 z M 32,12 l 4,0 0,4 -4,0 z M 36,12 l 4,0 0,4 -4,0 z M 40,12 l 4,0 0,4 -4,0 z M 48,12 l 4,0 0,4 -4,0 z M 56,12 l 4,0 0,4 -4,0 z M 60,12 l 4,0 0,4 -4,0 z M 68,12 l 4,0 0,4 -4,0 z M 88,12 l 4,0 0,4 -4,0 z M 92,12 l 4,0 0,4 -4,0 z M 96,12 l 4,0 0,4 -4,0 z M 104,12 l 4,0 0,4 -4,0 z M 112,12 l 4,0 0,4 -4,0 z M 116,12 l 4,0 0,4 -4,0 z M 120,12 l 4,0 0,4 -4,0 z M 128,12 l 4,0 0,4 -4,0 z M 0,16 l 4,0 0,4 -4,0 z M 8,16 l 4,0 0,4 -4,0 z M 12,16 l 4,0 0,4 -4,0 z M 16,16 l 4,0 0,4 -4,0 z M 24,16 l 4,0 0,4 -4,0 z M 36,16 l 4,0 0,4 -4,0 z M 60,16 l 4,0 0,4 -4,0 z M 64,16 l 4,0 0,4 -4,0 z M 72,16 l 4,0 0,4 -4,0 z M 76,16 l 4,0 0,4 -4,0 z M 80,16 l 4,0 0,4 -4,0 z M 84,16 l 4,0 0,4 -4,0 z M 92,16 l 4,0 0,4 -4,0 z M 104,16 l 4,0 0,4 -4,0 z M 112,16 l 4,0 0,4 -4,0 z M 116,16 l 4,0 0,4 -4,0 z M 120,16 l 4,0 0,4 -4,0 z M 128,16 l 4,0 0,4 -4,0 z M 0,20 l 4,0 0,4 -4,0 z M 24,20 l 4,0 0,4 -4,0 z M 32,20 l 4,0 0,4 -4,0 z M 36,20 l 4,0 0,4 -4,0 z M 44,20 l 4,0 0,4 -4,0 z M 48,20 l 4,0 0,4 -4,0 z M 68,20 l 4,0 0,4 -4,0 z M 72,20 l 4,0 0,4 -4,0 z M 88,20 l 4,0 0,4 -4,0 z M 104,20 l 4,0 0,4 -4,0 z M 128,20 l 4,0 0,4 -4,0 z M 0,24 l 4,0 0,4 -4,0 z M 4,24 l 4,0 0,4 -4,0 z M 8,24 l 4,0 0,4 -4,0 z M 12,24 l 4,0 0,4 -4,0 z M 16,24 l 4,0 0,4 -4,0 z M 20,24 l 4,0 0,4 -4,0 z M 24,24 l 4,0 0,4 -4,0 z M 32,24 l 4,0 0,4 -4,0 z M 40,24 l 4,0 0,4 -4,0 z M 48,24 l 4,0 0,4 -4,0 z M 56,24 l 4,0 0,4 -4,0 z M 64,24 l 4,0 0,4 -4,0 z M 72,24 l 4,0 0,4 -4,0 z M 80,24 l 4,0 0,4 -4,0 z M 88,24 l 4,0 0,4 -4,0 z M 96,24 l 4,0 0,4 -4,0 z M 104,24 l 4,0 0,4 -4,0 z M 108,24 l 4,0 0,4 -4,0 z M 112,24 l 4,0 0,4 -4,0 z M 116,24 l 4,0 0,4 -4,0 z M 120,24 l 4,0 0,4 -4,0 z M 124,24 l 4,0 0,4 -4,0 z M 128,24 l 4,0 0,4 -4,0 z M 36,28 l 4,0 0,4 -4,0 z M 40,28 l 4,0 0,4 -4,0 z M 44,28 l 4,0 0,4 -4,0 z M 56,28 l 4,0 0,4 -4,0 z M 64,28 l 4,0 0,4 -4,0 z M 76,28 l 4,0 0,4 -4,0 z M 84,28 l 4,0 0,4 -4,0 z M 96,28 l 4,0 0,4 -4,0 z M 0,32 l 4,0 0,4 -4,0 z M 4,32 l 4,0 0,4 -4,0 z M 8,32 l 4,0 0,4 -4,0 z M 12,32 l 4,0 0,4 -4,0 z M 16,32 l 4,0 0,4 -4,0 z M 24,32 l 4,0 0,4 -4,0 z M 28,32 l 4,0 0,4 -4,0 z M 32,32 l 4,0 0,4 -4,0 z M 36,32 l 4,0 0,4 -4,0 z M 44,32 l 4,0 0,4 -4,0 z M 64,32 l 4,0 0,4 -4,0 z M 68,32 l 4,0 0,4 -4,0 z M 80,32 l 4,0 0,4 -4,0 z M 88,32 l 4,0 0,4 -4,0 z M 92,32 l 4,0 0,4 -4,0 z M 96,32 l 4,0 0,4 -4,0 z M 100,32 l 4,0 0,4 -4,0 z M 108,32 l 4,0 0,4 -4,0 z M 116,32 l 4,0 0,4 -4,0 z M 124,32 l 4,0 0,4 -4,0 z M 0,36 l 4,0 0,4 -4,0 z M 12,36 l 4,0 0,4 -4,0 z M 16,36 l 4,0 0,4 -4,0 z M 20,36 l 4,0 0,4 -4,0 z M 28,36 l 4,0 0,4 -4,0 z M 32,36 l 4,0 0,4 -4,0 z M 40,36 l 4,0 0,4 -4,0 z M 48,36 l 4,0 0,4 -4,0 z M 52,36 l 4,0 0,4 -4,0 z M 56,36 l 4,0 0,4 -4,0 z M 60,36 l 4,0 0,4 -4,0 z M 72,36 l 4,0 0,4 -4,0 z M 76,36 l 4,0 0,4 -4,0 z M 80,36 l 4,0 0,4 -4,0 z M 84,36 l 4,0 0,4 -4,0 z M 92,36 l 4,0 0,4 -4,0 z M 100,36 l 4,0 0,4 -4,0 z M 104,36 l 4,0 0,4 -4,0 z M 120,36 l 4,0 0,4 -4,0 z M 124,36 l 4,0 0,4 -4,0 z M 128,36 l 4,0 0,4 -4,0 z M 8,40 l 4,0 0,4 -4,0 z M 12,40 l 4,0 0,4 -4,0 z M 24,40 l 4,0 0,4 -4,0 z M 28,40 l 4,0 0,4 -4,0 z M 32,40 l 4,0 0,4 -4,0 z M 40,40 l 4,0 0,4 -4,0 z M 52,40 l 4,0 0,4 -4,0 z M 56,40 l 4,0 0,4 -4,0 z M 60,40 l 4,0 0,4 -4,0 z M 64,40 l 4,0 0,4 -4,0 z M 72,40 l 4,0 0,4 -4,0 z M 80,40 l 4,0 0,4 -4,0 z M 84,40 l 4,0 0,4 -4,0 z M 96,40 l 4,0 0,4 -4,0 z M 100,40 l 4,0 0,4 -4,0 z M 116,40 l 4,0 0,4 -4,0 z M 124,40 l 4,0 0,4 -4,0 z M 0,44 l 4,0 0,4 -4,0 z M 4,44 l 4,0 0,4 -4,0 z M 8,44 l 4,0 0,4 -4,0 z M 20,44 l 4,0 0,4 -4,0 z M 48,44 l 4,0 0,4 -4,0 z M 52,44 l 4,0 0,4 -4,0 z M 60,44 l 4,0 0,4 -4,0 z M 76,44 l 4,0 0,4 -4,0 z M 80,44 l 4,0 0,4 -4,0 z M 84,44 l 4,0 0,4 -4,0 z M 88,44 l 4,0 0,4 -4,0 z M 92,44 l 4,0 0,4 -4,0 z M 108,44 l 4,0 0,4 -4,0 z M 112,44 l 4,0 0,4 -4,0 z M 120,44 l 4,0 0,4 -4,0 z M 8,48 l 4,0 0,4 -4,0 z M 12,48 l 4,0 0,4 -4,0 z M 20,48 l 4,0 0,4 -4,0 z M 24,48 l 4,0 0,4 -4,0 z M 32,48 l 4,0 0,4 -4,0 z M 36,48 l 4,0 0,4 -4,0 z M 40,48 l 4,0 0,4 -4,0 z M 48,48 l 4,0 0,4 -4,0 z M 56,48 l 4,0 0,4 -4,0 z M 60,48 l 4,0 0,4 -4,0 z M 68,48 l 4,0 0,4 -4,0 z M 76,48 l 4,0 0,4 -4,0 z M 88,48 l 4,0 0,4 -4,0 z M 92,48 l 4,0 0,4 -4,0 z M 96,48 l 4,0 0,4 -4,0 z M 100,48 l 4,0 0,4 -4,0 z M 108,48 l 4,0 0,4 -4,0 z M 112,48 l 4,0 0,4 -4,0 z M 116,48 l 4,0 0,4 -4,0 z M 0,52 l 4,0 0,4 -4,0 z M 8,52 l 4,0 0,4 -4,0 z M 28,52 l 4,0 0,4 -4,0 z M 60,52 l 4,0 0,4 -4,0 z M 64,52 l 4,0 0,4 -4,0 z M 68,52 l 4,0 0,4 -4,0 z M 72,52 l 4,0 0,4 -4,0 z M 76,52 l 4,0 0,4 -4,0 z M 80,52 l 4,0 0,4 -4,0 z M 92,52 l 4,0 0,4 -4,0 z M 96,52 l 4,0 0,4 -4,0 z M 104,52 l 4,0 0,4 -4,0 z M 124,52 l 4,0 0,4 -4,0 z M 128,52 l 4,0 0,4 -4,0 z M 8,56 l 4,0 0,4 -4,0 z M 20,56 l 4,0 0,4 -4,0 z M 24,56 l 4,0 0,4 -4,0 z M 28,56 l 4,0 0,4 -4,0 z M 44,56 l 4,0 0,4 -4,0 z M 48,56 l 4,0 0,4 -4,0 z M 80,56 l 4,0 0,4 -4,0 z M 84,56 l 4,0 0,4 -4,0 z M 88,56 l 4,0 0,4 -4,0 z M 96,56 l 4,0 0,4 -4,0 z M 108,56 l 4,0 0,4 -4,0 z M 124,56 l 4,0 0,4 -4,0 z M 8,60 l 4,0 0,4 -4,0 z M 12,60 l 4,0 0,4 -4,0 z M 16,60 l 4,0 0,4 -4,0 z M 28,60 l 4,0 0,4 -4,0 z M 32,60 l 4,0 0,4 -4,0 z M 40,60 l 4,0 0,4 -4,0 z M 44,60 l 4,0 0,4 -4,0 z M 56,60 l 4,0 0,4 -4,0 z M 64,60 l 4,0 0,4 -4,0 z M 72,60 l 4,0 0,4 -4,0 z M 76,60 l 4,0 0,4 -4,0 z M 84,60 l 4,0 0,4 -4,0 z M 92,60 l 4,0 0,4 -4,0 z M 96,60 l 4,0 0,4 -4,0 z M 100,60 l 4,0 0,4 -4,0 z M 120,60 l 4,0 0,4 -4,0 z M 0,64 l 4,0 0,4 -4,0 z M 4,64 l 4,0 0,4 -4,0 z M 8,64 l 4,0 0,4 -4,0 z M 12,64 l 4,0 0,4 -4,0 z M 16,64 l 4,0 0,4 -4,0 z M 20,64 l 4,0 0,4 -4,0 z M 24,64 l 4,0 0,4 -4,0 z M 28,64 l 4,0 0,4 -4,0 z M 40,64 l 4,0 0,4 -4,0 z M 44,64 l 4,0 0,4 -4,0 z M 68,64 l 4,0 0,4 -4,0 z M 88,64 l 4,0 0,4 -4,0 z M 96,64 l 4,0 0,4 -4,0 z M 112,64 l 4,0 0,4 -4,0 z M 124,64 l 4,0 0,4 -4,0 z M 0,68 l 4,0 0,4 -4,0 z M 4,68 l 4,0 0,4 -4,0 z M 20,68 l 4,0 0,4 -4,0 z M 48,68 l 4,0 0,4 -4,0 z M 52,68 l 4,0 0,4 -4,0 z M 56,68 l 4,0 0,4 -4,0 z M 60,68 l 4,0 0,4 -4,0 z M 72,68 l 4,0 0,4 -4,0 z M 76,68 l 4,0 0,4 -4,0 z M 80,68 l 4,0 0,4 -4,0 z M 92,68 l 4,0 0,4 -4,0 z M 104,68 l 4,0 0,4 -4,0 z M 108,68 l 4,0 0,4 -4,0 z M 116,68 l 4,0 0,4 -4,0 z M 124,68 l 4,0 0,4 -4,0 z M 128,68 l 4,0 0,4 -4,0 z M 8,72 l 4,0 0,4 -4,0 z M 12,72 l 4,0 0,4 -4,0 z M 24,72 l 4,0 0,4 -4,0 z M 28,72 l 4,0 0,4 -4,0 z M 52,72 l 4,0 0,4 -4,0 z M 56,72 l 4,0 0,4 -4,0 z M 60,72 l 4,0 0,4 -4,0 z M 64,72 l 4,0 0,4 -4,0 z M 68,72 l 4,0 0,4 -4,0 z M 72,72 l 4,0 0,4 -4,0 z M 80,72 l 4,0 0,4 -4,0 z M 84,72 l 4,0 0,4 -4,0 z M 88,72 l 4,0 0,4 -4,0 z M 100,72 l 4,0 0,4 -4,0 z M 104,72 l 4,0 0,4 -4,0 z M 108,72 l 4,0 0,4 -4,0 z M 116,72 l 4,0 0,4 -4,0 z M 124,72 l 4,0 0,4 -4,0 z M 0,76 l 4,0 0,4 -4,0 z M 4,76 l 4,0 0,4 -4,0 z M 8,76 l 4,0 0,4 -4,0 z M 20,76 l 4,0 0,4 -4,0 z M 32,76 l 4,0 0,4 -4,0 z M 40,76 l 4,0 0,4 -4,0 z M 48,76 l 4,0 0,4 -4,0 z M 52,76 l 4,0 0,4 -4,0 z M 64,76 l 4,0 0,4 -4,0 z M 76,76 l 4,0 0,4 -4,0 z M 84,76 l 4,0 0,4 -4,0 z M 104,76 l 4,0 0,4 -4,0 z M 108,76 l 4,0 0,4 -4,0 z M 120,76 l 4,0 0,4 -4,0 z M 0,80 l 4,0 0,4 -4,0 z M 8,80 l 4,0 0,4 -4,0 z M 16,80 l 4,0 0,4 -4,0 z M 24,80 l 4,0 0,4 -4,0 z M 28,80 l 4,0 0,4 -4,0 z M 32,80 l 4,0 0,4 -4,0 z M 36,80 l 4,0 0,4 -4,0 z M 40,80 l 4,0 0,4 -4,0 z M 48,80 l 4,0 0,4 -4,0 z M 56,80 l 4,0 0,4 -4,0 z M 68,80 l 4,0 0,4 -4,0 z M 80,80 l 4,0 0,4 -4,0 z M 88,80 l 4,0 0,4 -4,0 z M 100,80 l 4,0 0,4 -4,0 z M 112,80 l 4,0 0,4 -4,0 z M 124,80 l 4,0 0,4 -4,0 z M 0,84 l 4,0 0,4 -4,0 z M 4,84 l 4,0 0,4 -4,0 z M 8,84 l 4,0 0,4 -4,0 z M 12,84 l 4,0 0,4 -4,0 z M 28,84 l 4,0 0,4 -4,0 z M 32,84 l 4,0 0,4 -4,0 z M 36,84 l 4,0 0,4 -4,0 z M 40,84 l 4,0 0,4 -4,0 z M 76,84 l 4,0 0,4 -4,0 z M 80,84 l 4,0 0,4 -4,0 z M 92,84 l 4,0 0,4 -4,0 z M 104,84 l 4,0 0,4 -4,0 z M 108,84 l 4,0 0,4 -4,0 z M 116,84 l 4,0 0,4 -4,0 z M 124,84 l 4,0 0,4 -4,0 z M 128,84 l 4,0 0,4 -4,0 z M 0,88 l 4,0 0,4 -4,0 z M 8,88 l 4,0 0,4 -4,0 z M 12,88 l 4,0 0,4 -4,0 z M 24,88 l 4,0 0,4 -4,0 z M 36,88 l 4,0 0,4 -4,0 z M 44,88 l 4,0 0,4 -4,0 z M 48,88 l 4,0 0,4 -4,0 z M 60,88 l 4,0 0,4 -4,0 z M 80,88 l 4,0 0,4 -4,0 z M 88,88 l 4,0 0,4 -4,0 z M 96,88 l 4,0 0,4 -4,0 z M 100,88 l 4,0 0,4 -4,0 z M 116,88 l 4,0 0,4 -4,0 z M 124,88 l 4,0 0,4 -4,0 z M 0,92 l 4,0 0,4 -4,0 z M 8,92 l 4,0 0,4 -4,0 z M 28,92 l 4,0 0,4 -4,0 z M 40,92 l 4,0 0,4 -4,0 z M 44,92 l 4,0 0,4 -4,0 z M 56,92 l 4,0 0,4 -4,0 z M 80,92 l 4,0 0,4 -4,0 z M 84,92 l 4,0 0,4 -4,0 z M 88,92 l 4,0 0,4 -4,0 z M 96,92 l 4,0 0,4 -4,0 z M 100,92 l 4,0 0,4 -4,0 z M 104,92 l 4,0 0,4 -4,0 z M 108,92 l 4,0 0,4 -4,0 z M 116,92 l 4,0 0,4 -4,0 z M 120,92 l 4,0 0,4 -4,0 z M 0,96 l 4,0 0,4 -4,0 z M 24,96 l 4,0 0,4 -4,0 z M 28,96 l 4,0 0,4 -4,0 z M 36,96 l 4,0 0,4 -4,0 z M 44,96 l 4,0 0,4 -4,0 z M 60,96 l 4,0 0,4 -4,0 z M 64,96 l 4,0 0,4 -4,0 z M 68,96 l 4,0 0,4 -4,0 z M 76,96 l 4,0 0,4 -4,0 z M 88,96 l 4,0 0,4 -4,0 z M 92,96 l 4,0 0,4 -4,0 z M 96,96 l 4,0 0,4 -4,0 z M 100,96 l 4,0 0,4 -4,0 z M 104,96 l 4,0 0,4 -4,0 z M 108,96 l 4,0 0,4 -4,0 z M 112,96 l 4,0 0,4 -4,0 z M 128,96 l 4,0 0,4 -4,0 z M 32,100 l 4,0 0,4 -4,0 z M 36,100 l 4,0 0,4 -4,0 z M 48,100 l 4,0 0,4 -4,0 z M 52,100 l 4,0 0,4 -4,0 z M 56,100 l 4,0 0,4 -4,0 z M 64,100 l 4,0 0,4 -4,0 z M 68,100 l 4,0 0,4 -4,0 z M 72,100 l 4,0 0,4 -4,0 z M 76,100 l 4,0 0,4 -4,0 z M 84,100 l 4,0 0,4 -4,0 z M 88,100 l 4,0 0,4 -4,0 z M 96,100 l 4,0 0,4 -4,0 z M 112,100 l 4,0 0,4 -4,0 z M 116,100 l 4,0 0,4 -4,0 z M 120,100 l 4,0 0,4 -4,0 z M 128,100 l 4,0 0,4 -4,0 z M 0,104 l 4,0 0,4 -4,0 z M 4,104 l 4,0 0,4 -4,0 z M 8,104 l 4,0 0,4 -4,0 z M 12,104 l 4,0 0,4 -4,0 z M 16,104 l 4,0 0,4 -4,0 z M 20,104 l 4,0 0,4 -4,0 z M 24,104 l 4,0 0,4 -4,0 z M 32,104 l 4,0 0,4 -4,0 z M 36,104 l 4,0 0,4 -4,0 z M 52,104 l 4,0 0,4 -4,0 z M 56,104 l 4,0 0,4 -4,0 z M 60,104 l 4,0 0,4 -4,0 z M 64,104 l 4,0 0,4 -4,0 z M 84,104 l 4,0 0,4 -4,0 z M 88,104 l 4,0 0,4 -4,0 z M 92,104 l 4,0 0,4 -4,0 z M 96,104 l 4,0 0,4 -4,0 z M 104,104 l 4,0 0,4 -4,0 z M 112,104 l 4,0 0,4 -4,0 z M 116,104 l 4,0 0,4 -4,0 z M 120,104 l 4,0 0,4 -4,0 z M 124,104 l 4,0 0,4 -4,0 z M 0,108 l 4,0 0,4 -4,0 z M 24,108 l 4,0 0,4 -4,0 z M 48,108 l 4,0 0,4 -4,0 z M 52,108 l 4,0 0,4 -4,0 z M 64,108 l 4,0 0,4 -4,0 z M 72,108 l 4,0 0,4 -4,0 z M 76,108 l 4,0 0,4 -4,0 z M 80,108 l 4,0 0,4 -4,0 z M 84,108 l 4,0 0,4 -4,0 z M 88,108 l 4,0 0,4 -4,0 z M 92,108 l 4,0 0,4 -4,0 z M 96,108 l 4,0 0,4 -4,0 z M 112,108 l 4,0 0,4 -4,0 z M 116,108 l 4,0 0,4 -4,0 z M 120,108 l 4,0 0,4 -4,0 z M 124,108 l 4,0 0,4 -4,0 z M 128,108 l 4,0 0,4 -4,0 z M 0,112 l 4,0 0,4 -4,0 z M 8,112 l 4,0 0,4 -4,0 z M 12,112 l 4,0 0,4 -4,0 z M 16,112 l 4,0 0,4 -4,0 z M 24,112 l 4,0 0,4 -4,0 z M 32,112 l 4,0 0,4 -4,0 z M 48,112 l 4,0 0,4 -4,0 z M 56,112 l 4,0 0,4 -4,0 z M 68,112 l 4,0 0,4 -4,0 z M 80,112 l 4,0 0,4 -4,0 z M 88,112 l 4,0 0,4 -4,0 z M 96,112 l 4,0 0,4 -4,0 z M 100,112 l 4,0 0,4 -4,0 z M 104,112 l 4,0 0,4 -4,0 z M 108,112 l 4,0 0,4 -4,0 z M 112,112 l 4,0 0,4 -4,0 z M 124,112 l 4,0 0,4 -4,0 z M 0,116 l 4,0 0,4 -4,0 z M 8,116 l 4,0 0,4 -4,0 z M 12,116 l 4,0 0,4 -4,0 z M 16,116 l 4,0 0,4 -4,0 z M 24,116 l 4,0 0,4 -4,0 z M 32,116 l 4,0 0,4 -4,0 z M 64,116 l 4,0 0,4 -4,0 z M 72,116 l 4,0 0,4 -4,0 z M 76,116 l 4,0 0,4 -4,0 z M 84,116 l 4,0 0,4 -4,0 z M 88,116 l 4,0 0,4 -4,0 z M 96,116 l 4,0 0,4 -4,0 z M 100,116 l 4,0 0,4 -4,0 z M 108,116 l 4,0 0,4 -4,0 z M 112,116 l 4,0 0,4 -4,0 z M 116,116 l 4,0 0,4 -4,0 z M 124,116 l 4,0 0,4 -4,0 z M 128,116 l 4,0 0,4 -4,0 z M 0,120 l 4,0 0,4 -4,0 z M 8,120 l 4,0 0,4 -4,0 z M 12,120 l 4,0 0,4 -4,0 z M 16,120 l 4,0 0,4 -4,0 z M 24,120 l 4,0 0,4 -4,0 z M 32,120 l 4,0 0,4 -4,0 z M 40,120 l 4,0 0,4 -4,0 z M 44,120 l 4,0 0,4 -4,0 z M 48,120 l 4,0 0,4 -4,0 z M 60,120 l 4,0 0,4 -4,0 z M 72,120 l 4,0 0,4 -4,0 z M 80,120 l 4,0 0,4 -4,0 z M 84,120 l 4,0 0,4 -4,0 z M 88,120 l 4,0 0,4 -4,0 z M 92,120 l 4,0 0,4 -4,0 z M 96,120 l 4,0 0,4 -4,0 z M 104,120 l 4,0 0,4 -4,0 z M 120,120 l 4,0 0,4 -4,0 z M 0,124 l 4,0 0,4 -4,0 z M 24,124 l 4,0 0,4 -4,0 z M 32,124 l 4,0 0,4 -4,0 z M 44,124 l 4,0 0,4 -4,0 z M 56,124 l 4,0 0,4 -4,0 z M 60,124 l 4,0 0,4 -4,0 z M 64,124 l 4,0 0,4 -4,0 z M 76,124 l 4,0 0,4 -4,0 z M 80,124 l 4,0 0,4 -4,0 z M 84,124 l 4,0 0,4 -4,0 z M 92,124 l 4,0 0,4 -4,0 z M 104,124 l 4,0 0,4 -4,0 z M 116,124 l 4,0 0,4 -4,0 z M 120,124 l 4,0 0,4 -4,0 z M 0,128 l 4,0 0,4 -4,0 z M 4,128 l 4,0 0,4 -4,0 z M 8,128 l 4,0 0,4 -4,0 z M 12,128 l 4,0 0,4 -4,0 z M 16,128 l 4,0 0,4 -4,0 z M 20,128 l 4,0 0,4 -4,0 z M 24,128 l 4,0 0,4 -4,0 z M 32,128 l 4,0 0,4 -4,0 z M 36,128 l 4,0 0,4 -4,0 z M 40,128 l 4,0 0,4 -4,0 z M 44,128 l 4,0 0,4 -4,0 z M 60,128 l 4,0 0,4 -4,0 z M 64,128 l 4,0 0,4 -4,0 z M 68,128 l 4,0 0,4 -4,0 z M 80,128 l 4,0 0,4 -4,0 z M 92,128 l 4,0 0,4 -4,0 z M 96,128 l 4,0 0,4 -4,0 z M 100,128 l 4,0 0,4 -4,0 z M 108,128 l 4,0 0,4 -4,0 z M 112,128 l 4,0 0,4 -4,0 z M 124,128 l 4,0 0,4 -4,0 z " />
	</g>
</svg>
