<svg xmlns="http://www.w3.org/2000/svg" width="300" height="100" viewBox="0 0 300 100">
  <!-- Background -->
  <rect width="300" height="100" fill="#1a1d21" rx="10" ry="10" stroke="#fbce41" stroke-width="4"/>
  
  <!-- Path Line -->
  <path d="M20,80 Q75,40 150,80 T280,80" fill="none" stroke="#fbce41" stroke-width="3" stroke-dasharray="5,5"/>
  
  <!-- Nodes on Path -->
  <circle cx="20" cy="80" r="6" fill="#fbce41"/>
  <circle cx="85" cy="60" r="6" fill="#fbce41"/>
  <circle cx="150" cy="80" r="6" fill="#fbce41"/>
  <circle cx="215" cy="60" r="6" fill="#fbce41"/>
  <circle cx="280" cy="80" r="8" fill="#fbce41" stroke="#fff" stroke-width="2"/>
  
  <!-- Text S.C.O.R.E. -->
  <text x="150" y="55" font-family="Arial, Helvetica, sans-serif" font-weight="900" font-size="40" fill="#fbce41" stroke="#000" stroke-width="1.5" text-anchor="middle" letter-spacing="4">S.C.O.R.E.</text>
  
  <!-- Decorative Stars -->
  <polygon points="150,15 155,25 165,25 157,32 160,42 150,36 140,42 143,32 135,25 145,25" fill="#fbce41" stroke="#000" stroke-width="1"/>
  <polygon points="50,25 53,32 60,32 55,37 57,44 50,40 43,44 45,37 40,32 47,32" fill="#fbce41" stroke="#000" stroke-width="1"/>
  <polygon points="250,25 253,32 260,32 255,37 257,44 250,40 243,44 245,37 240,32 247,32" fill="#fbce41" stroke="#000" stroke-width="1"/>

</svg>
